<svg xmlns="http://www.w3.org/2000/svg" xmlns:xlink="http://www.w3.org/1999/xlink" version="1.1" id="Layer_1" x="0px" y="0px" viewBox="0 0 424 334" style="enable-background:new 0 0 424 334;" xml:space="preserve">
<style type="text/css">
	.st0{fill:#E53328;}
	.st1{fill:#F18B00;}
	.st2{fill:url(#SVGID_1_);}
	.st3{fill:#009A3E;}
	.st4{fill:url(#SVGID_00000081616797281106716590000006348850639158256283_);}
	.st5{fill:url(#SVGID_00000182500758970701822800000017338616597062311101_);}
	.st6{fill:url(#SVGID_00000147202358438431093280000012786614614547175839_);}
	.st7{fill:url(#SVGID_00000163034935289289793470000002022560301708018567_);}
	.st8{fill:#FFFFFF;}
</style>
<g id="Layer_2_00000014620172323740172800000018229693229815445643_">
	<g>
		<g>
			<g>
				<path class="st0" d="M146.3,81c24.7-40.5,69.6-61.2,105.4-63.4c-0.5-0.3-1-0.6-1.5-0.9C196.4-16,126.2,1,93.4,54.7      s-15.8,123.9,38,156.6c5.1,3.1,10.4,5.8,15.8,8C122.9,186.8,117.4,128.5,146.3,81z"/>
			</g>
			<g>
				<path class="st1" d="M210.7,92.8c28.4-17.7,63.3-16.7,86.5-6.8c-0.2-0.3-0.4-0.7-0.6-1C273,47.4,223.4,36,185.7,59.5      s-49.1,73.1-25.6,110.8c2.3,3.6,4.8,6.9,7.5,10.1C162.4,152.1,177.4,113.6,210.7,92.8z"/>
			</g>
			<g>
				
					<linearGradient id="SVGID_1_" gradientUnits="userSpaceOnUse" x1="136.5467" y1="1275.0133" x2="136.5467" y2="986.9" gradientTransform="matrix(1 0 0 1 0 -941)">
					<stop offset="0" style="stop-color:#1D1D1B"/>
					<stop offset="0.9755" style="stop-color:#6F6F6E"/>
				</linearGradient>
				<path class="st2" d="M93.3,215.2c-39.6-53.1-43-122-27.2-169.3c-0.6,0.5-1.3,0.9-1.9,1.4C-6.4,99.7-21,199.4,31.5,269.9      s152.3,85.1,222.9,32.6c6.7-5,12.9-10.4,18.7-16.2C218.1,300.8,139.7,277.5,93.3,215.2z"/>
			</g>
			<g>
				<g>
					<path class="st3" d="M264.4,129.7c21.2,8.4,34.7,27.9,38.6,44.6c0.1-0.2,0.2-0.5,0.3-0.7c11.1-28.1-2.6-59.9-30.8-71       c-28.1-11.1-59.9,2.7-71.1,30.7c-1.1,2.7-1.9,5.4-2.5,8.1C212.4,127.2,239.6,119.9,264.4,129.7z"/>
				</g>
			</g>
		</g>
		
			<linearGradient id="SVGID_00000162316974027615171850000001339364583641456306_" gradientUnits="userSpaceOnUse" x1="219.7609" y1="67.1505" x2="219.7609" y2="151.6376" gradientTransform="matrix(1 0 0 -1 0 336)">
			<stop offset="9.819999e-02" style="stop-color:#1D1D1B"/>
			<stop offset="0.9755" style="stop-color:#6F6F6E"/>
		</linearGradient>
		<path style="fill:url(#SVGID_00000162316974027615171850000001339364583641456306_);" d="M213.4,245.4c1,1.2,2,1.9,3,2.1    c6.4,1,12.7,1.2,18.9,0.8s12.4-1.3,18.6-2.6l-6,20.6c-8.3,1.4-16.3,2.2-23.9,2.5c-7.6,0.2-15.3-0.2-23-1.3    c-6.6-0.8-11.1-3.7-13.5-8.5c-2.4-4.9-2.5-11.5-0.3-20c0.1-0.4,0.2-1,0.3-1.6s0.4-1.5,0.8-2.8c0.4-1.3,0.9-3.1,1.5-5.4    c0.6-2.3,1.5-5.4,2.7-9.3c1.2-3.9,2.6-8.7,4.4-14.5c1.8-5.8,4-12.7,6.5-20.9h25L214.2,231c-0.4,1.9-0.8,3.8-1.3,5.6    s-0.8,3.6-1,5.6C212,243.1,212.4,244.2,213.4,245.4"/>
		
			<linearGradient id="SVGID_00000109018483340141383950000011728267269557509038_" gradientUnits="userSpaceOnUse" x1="367.55" y1="68.6" x2="367.55" y2="152.1107" gradientTransform="matrix(1 0 0 -1 0 336)">
			<stop offset="9.819999e-02" style="stop-color:#1D1D1B"/>
			<stop offset="0.9755" style="stop-color:#6F6F6E"/>
		</linearGradient>
		<path style="fill:url(#SVGID_00000109018483340141383950000011728267269557509038_);" d="M361.3,205.6c1.9-0.7,4.2-1.3,6.8-1.6    l36-0.1l4.8-20h-41.1c-6.5-0.1-12,0.5-16.4,1.8c-4.2,1.2-7.8,3-10.8,5.3c1.1,1.1,2.1,2.3,2.9,3.7c1.4,2.4,2.1,5.2,2.1,8.4    c0,4.4-0.6,8.7-1.9,12.9c-1.2,4.2-3.1,8.2-5.6,11.9c-0.1,0.1-0.1,0.2-0.2,0.3c0.1,0.3,0.2,0.6,0.4,0.9c0.5,1.3,1.5,2.3,2.9,3.1    s3.1,1.5,5,2.1s4,1,6.3,1.2c2.3,0.3,4.5,0.4,6.7,0.6c2.2,0.1,4.3,0.2,6.2,0.2c1.9,0,3.6,0,4.9-0.1c1.6,0.8,2.6,1.6,3.1,2.3    s0.4,2.1-0.2,4c-0.5,1.6-1.5,2.7-3,3.5c-1.5,0.7-3.3,1.2-5.3,1.5s-4.2,0.4-6.4,0.4h-6.4h-25.9l6.4,19.5h18.8    c6.7,0,12.2-0.2,16.5-0.7s7.7-1.4,10.3-2.6c4.3-2,7.7-4.9,10.2-8.8c2.5-3.8,4.5-8,6-12.5c1.3-3.6,1.8-7,1.7-10.3    c-0.2-3.3-0.9-5.9-2.4-7.9c-1.8-2.5-4.5-4.3-8.1-5.4c-3.6-1-8.7-1.6-15.4-1.6h-4c-1.1,0-2.1,0-2.9-0.1c-0.8,0-1.5-0.1-2.1-0.2    c-0.6-0.1-1.2-0.3-1.8-0.6c-1.4-0.7-2.4-1.6-2.9-2.8s-0.3-2.8,0.5-4.6C358.1,207.6,359.4,206.4,361.3,205.6"/>
		
			<linearGradient id="SVGID_00000143608912323527757320000016760353237626896002_" gradientUnits="userSpaceOnUse" x1="296.15" y1="68.6" x2="296.15" y2="151.7" gradientTransform="matrix(1 0 0 -1 0 336)">
			<stop offset="9.819999e-02" style="stop-color:#1D1D1B"/>
			<stop offset="0.9755" style="stop-color:#6F6F6E"/>
		</linearGradient>
		<path style="fill:url(#SVGID_00000143608912323527757320000016760353237626896002_);" d="M299.5,226.7c2.1,0,3.8-0.1,5.2-0.4    c1.4-0.3,2.5-0.7,3.5-1.2c0.9-0.5,1.7-1.1,2.4-1.8c0.6-0.7,1.3-1.4,2-2.2c1.7-1.9,3-3.9,4-6.2c0.9-2.3,1.4-4.8,1.4-7.4    c0-0.9-0.2-1.8-0.5-2.8s-0.8-1.8-1.4-2.6s-1.3-1.4-2.2-1.9c-0.9-0.5-1.8-0.7-2.9-0.7h-15.5l-8.3,27.3h12.3V226.7z M297.5,243.8    H282l-7.2,23.6h-24.3l25.3-83.1h42.3c2.8,0,5.7,0.4,8.5,1.1c2.8,0.7,5.4,1.9,7.6,3.5s4.1,3.5,5.5,5.9s2.1,5.2,2.1,8.4    c0,4.4-0.6,8.7-1.9,12.9c-1.2,4.2-3.1,8.2-5.6,11.9c-1.7,2.7-3.8,5.2-6.1,7.6c-2.4,2.4-5,4.4-7.8,5.9l8.5,25.9h-23.6L297.5,243.8z    "/>
		
			<linearGradient id="SVGID_00000030457086353391126530000014642948232134955662_" gradientUnits="userSpaceOnUse" x1="413" y1="70.9" x2="413" y2="92.6569" gradientTransform="matrix(1 0 0 -1 0 336)">
			<stop offset="9.819999e-02" style="stop-color:#1D1D1B"/>
			<stop offset="0.9755" style="stop-color:#6F6F6E"/>
		</linearGradient>
		<path style="fill:url(#SVGID_00000030457086353391126530000014642948232134955662_);" d="M424,254.2c0,6-4.9,10.9-11,10.9    s-11-4.9-11-10.9s4.9-10.9,11-10.9C419.1,243.3,424,248.2,424,254.2"/>
		<path class="st8" d="M410.9,254.2h1.6c1.7,0,2.7-0.9,2.7-2.3c0-1.6-1.1-2.2-2.8-2.2c-0.8,0-1.3,0.1-1.5,0.1L410.9,254.2    L410.9,254.2z M409.3,248.7c0.8-0.2,1.9-0.3,3-0.3c1.7,0,2.7,0.3,3.5,1c0.6,0.5,1,1.4,1,2.3c0,1.6-1,2.6-2.3,3.1v0.1    c0.9,0.3,1.5,1.2,1.8,2.4c0.4,1.7,0.7,2.8,0.9,3.3h-1.6c-0.2-0.3-0.5-1.4-0.8-2.9c-0.4-1.7-1-2.3-2.4-2.3h-1.5v5.2h-1.6V248.7z"/>
	</g>
</g>
</svg>